# xmcd
#
# Track frame offsets:
#	150
#	17425
#	35030
#	50392
#	67684
#	83855
#	100657
#	116078
#	130158
#	145962
#	163177
#	179007
#	193493
#	209672
#	231329
#	249292
#	265988
#	280254
#	296859
#	313212
#	330723
#
# Disc length: 4592 seconds
#
# Revision: 1
# Processed by: cddbd v1.5.2PL0 Copyright (c) Steve Scherf et al.
# Submitted via: audiograbber 1.83.01
#
DISCID=4911ee15
DTITLE=Blake Shelton - Reloaded: 20 #1 Hits
DYEAR=2015
DGENRE=Country
TTITLE0=Austin
TTITLE1=The Baby
TTITLE2=Some Beach
TTITLE3=Home
TTITLE4=She Wouldn't Be Gone
TTITLE5=Hillbilly Bone (feat. Trace Adkins)
TTITLE6=All About Tonight
TTITLE7=Who Are You When I'm Not Looking
TTITLE8=Honey Bee
TTITLE9=God Gave Me You
TTITLE10=Drink On It
TTITLE11=Over
TTITLE12=Sure Be Cool If You Did
TTITLE13=Boys 'Round Here (feat. Pistol Annies and Friends)
TTITLE14=Mine Would Be You
TTITLE15=Doin' What She Likes
TTITLE16=My Eyes (feat. Gwen Sebastian)
TTITLE17=Neon Light
TTITLE18=Lonely Tonight (feat. Ashley Monroe)
TTITLE19=Sangria
TTITLE20=Gonna
EXTD=
EXTT0=
EXTT1=
EXTT2=
EXTT3=
EXTT4=
EXTT5=
EXTT6=
EXTT7=
EXTT8=
EXTT9=
EXTT10=
EXTT11=
EXTT12=
EXTT13=
EXTT14=
EXTT15=
EXTT16=
EXTT17=
EXTT18=
EXTT19=
EXTT20=
PLAYORDER=
